<?xml version="1.0" encoding="utf-8"?>
<!-- Generator: Adobe Illustrator 16.0.0, SVG Export Plug-In . SVG Version: 6.00 Build 0)  -->
<!DOCTYPE svg PUBLIC "-//W3C//DTD SVG 1.1//EN" "http://www.w3.org/Graphics/SVG/1.1/DTD/svg11.dtd">
<svg version="1.1" id="cog7" xmlns="http://www.w3.org/2000/svg" xmlns:xlink="http://www.w3.org/1999/xlink" x="0px" y="0px"
	 width="96px" height="96px" viewBox="0 0 96 96" enable-background="new 0 0 96 96" xml:space="preserve">
<g>
	<g>
		<path fill-rule="evenodd" clip-rule="evenodd" fill="#FFFFFF" d="M81.379,60.37c1.278-3.584,2.02-7.422,2.11-11.432
			c0.46-0.144,0.943-0.29,1.385-0.434c4.905-1.599,9.091-3.101,10.968-4.423l-1.536-8.765c-2.02-0.54-5.96-0.584-10.489-0.458
			c-0.872,0.025-1.806,0.07-2.747,0.115c-1.318-3.415-3.119-6.581-5.341-9.398c0.511-0.804,1.013-1.602,1.47-2.355
			c2.374-3.918,4.069-7.239,4.619-9.286l-6.656-5.492c-1.889,0.904-4.714,3.084-8.103,6.138c-0.647,0.583-1.329,1.221-2.016,1.866
			c-3.102-1.726-6.483-2.992-10.061-3.716c-0.117-0.94-0.236-1.872-0.363-2.74c-0.661-4.551-1.358-7.868-2.233-9.793l-8.769,0
			c-0.875,1.925-1.571,5.242-2.234,9.793c-0.125,0.868-0.245,1.8-0.363,2.74c-3.576,0.724-6.958,1.99-10.06,3.716
			c-0.687-0.645-1.368-1.282-2.017-1.866c-3.388-3.054-6.212-5.234-8.103-6.138l-6.615,5.45c0.548,2.046,2.206,5.41,4.579,9.328
			c0.457,0.753,0.96,1.552,1.47,2.355c-2.223,2.817-4.024,5.983-5.339,9.398c-0.943-0.045-1.877-0.09-2.75-0.115
			c-4.528-0.126-8.526,0.111-10.545,0.651l-1.459,8.285c1.875,1.322,6.043,3.11,10.949,4.709c0.441,0.144,0.924,0.29,1.384,0.434
			c0.089,4.01,0.832,7.848,2.108,11.432c-0.052,0.041-0.1,0.079-0.152,0.121c-2.957,2.396-6.302,5.127-9.873,8.035l4.398,7.456
			c4.266-1.683,8.15-3.191,11.671-4.593c0.056-0.021,0.105-0.043,0.161-0.065c2.636,3.18,5.812,5.869,9.37,7.969
			c-0.011,0.063-0.023,0.121-0.036,0.186c-0.749,3.767-1.456,7.522-2.351,12.082l8.192,2.929c2.203-4.074,3.99-7.327,5.801-10.701
			c0.033-0.059,0.06-0.115,0.093-0.175c1.985,0.351,4.02,0.568,6.104,0.568c2.084,0,4.118-0.218,6.104-0.568
			c0.032,0.06,0.059,0.116,0.093,0.175c1.81,3.374,3.597,6.626,5.799,10.7l8.192-2.929c-0.893-4.56-1.601-8.314-2.35-12.081
			c-0.013-0.064-0.024-0.122-0.037-0.186c3.56-2.1,6.734-4.789,9.371-7.969c0.056,0.022,0.105,0.044,0.162,0.065
			c3.522,1.401,7.394,2.922,11.659,4.604l4.41-7.478c-2.027-1.651-5.371-4.377-9.873-8.025C81.48,60.449,81.433,60.411,81.379,60.37
			z M48,72.047c-13.255,0-24-10.766-24-24.047s10.745-24.047,24-24.047S72,34.719,72,48S61.255,72.047,48,72.047z"/>
	</g>
</g>
</svg>
