<?xml version="1.0" encoding="utf-8"?>
<!-- Generator: Adobe Illustrator 16.0.0, SVG Export Plug-In . SVG Version: 6.00 Build 0)  -->
<!DOCTYPE svg PUBLIC "-//W3C//DTD SVG 1.1//EN" "http://www.w3.org/Graphics/SVG/1.1/DTD/svg11.dtd">
<svg version="1.1" id="cog10" xmlns="http://www.w3.org/2000/svg" xmlns:xlink="http://www.w3.org/1999/xlink" x="0px" y="0px"
	 width="96px" height="96px" viewBox="0 0 96 96" enable-background="new 0 0 96 96" xml:space="preserve">
<path fill="#FFFFFF" d="M89.282,56.138c0,0-3.007-1.649-3.007-8.138c0-6.487,3.007-8.139,3.007-8.139
	c4.467-2.45,7.424-6.548,6.571-9.104c-0.854-2.557-8.016-7.62-12.906-6.195c0,0-3.294,0.959-7.882-3.627
	c-4.588-4.588-3.629-7.882-3.629-7.882c1.425-4.892,0.646-9.871-1.731-11.066c-2.378-1.195-11.116,0.264-13.567,4.73
	c0,0-1.649,3.007-8.138,3.007c-6.487,0-8.139-3.007-8.139-3.007c-2.45-4.467-6.548-7.423-9.104-6.571
	C28.201,1,23.138,8.162,24.562,13.053c0,0,0.961,3.294-3.628,7.882c-4.587,4.587-7.881,3.627-7.881,3.627
	c-4.891-1.425-9.871-0.646-11.066,1.731C0.792,28.673,2.25,37.411,6.718,39.861c0,0,3.006,1.651,3.006,8.139
	c0,6.488-3.006,8.138-3.006,8.138c-4.467,2.451-7.424,6.549-6.571,9.104c0.853,2.557,8.016,7.619,12.907,6.194
	c0,0,3.294-0.959,7.881,3.629c4.589,4.588,3.628,7.882,3.628,7.882c-1.425,4.891-0.646,9.871,1.731,11.066
	c2.379,1.195,11.117-0.265,13.567-4.731c0,0,1.651-3.007,8.139-3.007c6.488,0,8.138,3.007,8.138,3.007
	c2.451,4.467,6.549,7.424,9.104,6.571c2.557-0.854,7.619-8.016,6.194-12.906c0,0-0.959-3.294,3.629-7.882s7.882-3.629,7.882-3.629
	c4.891,1.425,9.87,0.646,11.066-1.73C95.209,67.326,93.749,58.589,89.282,56.138z M48,75c-14.912,0-27-12.088-27-27s12.088-27,27-27
	s27,12.088,27,27S62.912,75,48,75z"/>
</svg>
