<?xml version="1.0" encoding="utf-8"?>
<!-- Generator: Adobe Illustrator 16.0.0, SVG Export Plug-In . SVG Version: 6.00 Build 0)  -->
<!DOCTYPE svg PUBLIC "-//W3C//DTD SVG 1.1//EN" "http://www.w3.org/Graphics/SVG/1.1/DTD/svg11.dtd">
<svg version="1.1" id="cog19_new" xmlns="http://www.w3.org/2000/svg" xmlns:xlink="http://www.w3.org/1999/xlink" x="0px" y="0px"
	 width="96px" height="96px" viewBox="0 0 96 96" enable-background="new 0 0 96 96" xml:space="preserve">
<path fill="#FFFFFF" d="M44.152,5.942l7.698,0c0.772,1.692,1.379,4.604,1.96,8.603c0.115,0.76,0.224,1.578,0.318,2.404
	c3.144,0.634,6.116,1.745,8.842,3.261c0.596-0.565,1.197-1.123,1.765-1.638c2.979-2.678,5.462-4.596,7.112-5.386l5.848,4.82
	c-0.481,1.796-1.972,4.712-4.05,8.153c-0.409,0.662-0.845,1.367-1.299,2.07c1.956,2.476,3.533,5.255,4.691,8.248
	c0.828-0.033,1.647-0.078,2.417-0.093c1.169-0.033,2.294-0.054,3.345-0.054c2.519,0,4.61,0.117,5.858,0.455l1.354,7.694
	c-1.649,1.163-5.322,2.482-9.636,3.886c-0.384,0.123-0.811,0.247-1.214,0.379c-0.079,3.52-0.729,6.891-1.849,10.039
	c0.043,0.033,0.09,0.07,0.132,0.102c3.955,3.204,6.89,5.6,8.67,7.046l-3.867,6.567c-3.753-1.479-7.146-2.806-10.242-4.036
	c-0.051-0.021-0.089-0.043-0.145-0.064c-2.316,2.792-5.105,5.151-8.223,7c0.003,0.053,0.015,0.109,0.027,0.163
	c0.658,3.311,1.285,6.602,2.064,10.612l-7.19,2.564c-1.939-3.573-3.511-6.427-5.093-9.392c-0.033-0.056-0.06-0.104-0.081-0.151
	c-1.747,0.305-3.531,0.5-5.364,0.5c-1.834,0-3.618-0.195-5.363-0.5c-0.023,0.048-0.049,0.096-0.082,0.151
	c-1.583,2.965-3.154,5.819-5.086,9.393l-7.199-2.564c0.791-4.012,1.407-7.303,2.065-10.613c0.013-0.054,0.025-0.11,0.036-0.163
	c-3.125-1.849-5.915-4.208-8.231-7c-0.045,0.021-0.094,0.043-0.139,0.064c-3.099,1.23-6.506,2.547-10.253,4.024l-3.862-6.546
	c3.137-2.555,6.073-4.945,8.671-7.056c0.045-0.031,0.089-0.068,0.134-0.102c-1.122-3.148-1.773-6.52-1.851-10.039
	c-0.403-0.132-0.829-0.256-1.213-0.379c-4.307-1.403-7.969-2.975-9.616-4.138l1.283-7.271c1.45-0.396,4.062-0.604,7.142-0.604
	c0.685,0,1.393,0.011,2.116,0.031c0.765,0.015,1.585,0.06,2.414,0.093c1.155-2.993,2.74-5.772,4.689-8.248
	c-0.452-0.703-0.888-1.408-1.288-2.07c-2.088-3.44-3.541-6.394-4.025-8.189l5.812-4.784c1.663,0.79,4.135,2.708,7.112,5.386
	c0.568,0.515,1.17,1.073,1.774,1.638c2.718-1.516,5.689-2.626,8.832-3.261c0.107-0.827,0.205-1.644,0.318-2.404
	C42.774,10.546,43.38,7.634,44.152,5.942 M44.152-0.058c-2.349,0-4.482,1.371-5.458,3.508c-0.876,1.918-1.553,4.576-2.212,8.729
	c-0.808,0.266-1.604,0.559-2.391,0.88c-3.085-2.689-5.442-4.381-7.363-5.293c-0.819-0.39-1.699-0.581-2.573-0.581
	c-1.366,0-2.719,0.466-3.814,1.368l-5.811,4.784c-1.819,1.497-2.593,3.92-1.98,6.195c0.693,2.57,2.403,5.847,3.944,8.488
	c-0.471,0.762-0.915,1.541-1.332,2.337c-0.244-0.003-0.486-0.004-0.726-0.004c-3.804,0-6.738,0.274-8.72,0.814
	c-2.241,0.611-3.927,2.46-4.331,4.747l-1.283,7.271c-0.404,2.288,0.55,4.603,2.448,5.943c2.204,1.556,5.757,3.018,8.632,4.055
	c0.158,1.158,0.37,2.309,0.635,3.448c-1.802,1.466-3.72,3.027-5.72,4.656c-2.3,1.873-2.886,5.146-1.378,7.701l3.862,6.546
	c1.106,1.875,3.099,2.952,5.169,2.952c0.735,0,1.479-0.136,2.199-0.419c1.671-0.659,3.274-1.286,4.812-1.887
	c0.61-0.239,1.212-0.474,1.803-0.705c0.998,0.945,2.05,1.837,3.152,2.671c-0.095,0.491-0.191,0.987-0.288,1.492
	c-0.324,1.679-0.664,3.442-1.045,5.373c-0.575,2.917,1.072,5.815,3.873,6.813l7.199,2.564c0.662,0.235,1.343,0.349,2.013,0.349
	c2.151,0,4.206-1.162,5.279-3.147c0.746-1.38,1.438-2.652,2.098-3.865c0.389-0.715,0.767-1.41,1.138-2.095
	c0.682,0.042,1.353,0.062,2.018,0.062c0.664,0,1.335-0.021,2.017-0.062c0.475,0.873,0.959,1.763,1.465,2.691
	c0.564,1.035,1.154,2.118,1.783,3.276c1.075,1.979,3.127,3.139,5.274,3.139c0.671,0,1.352-0.113,2.015-0.35l7.19-2.564
	c2.794-0.996,4.439-3.885,3.874-6.796l-0.718-3.71c-0.212-1.094-0.415-2.145-0.614-3.171c1.101-0.833,2.15-1.724,3.147-2.668
	c0.972,0.383,1.971,0.775,2.999,1.18l3.614,1.421c0.719,0.283,1.463,0.419,2.197,0.419c2.073,0,4.066-1.078,5.172-2.956l3.867-6.567
	c1.506-2.558,0.916-5.831-1.387-7.702l-1.921-1.562c-1.062-0.863-2.328-1.896-3.791-3.084c0.262-1.129,0.472-2.269,0.63-3.416
	c4.521-1.546,6.971-2.642,8.653-3.828c1.898-1.339,2.854-3.654,2.451-5.942l-1.354-7.694c-0.403-2.293-2.096-4.146-4.343-4.753
	c-1.697-0.459-3.987-0.663-7.425-0.663c-0.611,0-1.261,0.006-1.961,0.019c-0.415-0.791-0.855-1.566-1.323-2.323
	c2.115-3.614,3.419-6.392,3.975-8.466c0.609-2.271-0.164-4.688-1.979-6.184l-5.848-4.82c-1.096-0.903-2.45-1.37-3.817-1.37
	c-0.88,0-1.765,0.193-2.59,0.588c-1.247,0.597-3.332,1.79-7.345,5.285c-0.787-0.321-1.585-0.614-2.392-0.88
	c-0.654-4.137-1.332-6.802-2.212-8.729c-0.976-2.137-3.108-3.508-5.458-3.508L44.152-0.058L44.152-0.058z"/>
</svg>
