<?xml version="1.0" encoding="utf-8"?>
<!-- Generator: Adobe Illustrator 16.0.0, SVG Export Plug-In . SVG Version: 6.00 Build 0)  -->
<!DOCTYPE svg PUBLIC "-//W3C//DTD SVG 1.1//EN" "http://www.w3.org/Graphics/SVG/1.1/DTD/svg11.dtd">
<svg version="1.1" id="cog24" xmlns="http://www.w3.org/2000/svg" xmlns:xlink="http://www.w3.org/1999/xlink" x="0px" y="0px"
	 width="96px" height="96px" viewBox="0 0 96 96" enable-background="new 0 0 96 96" xml:space="preserve">
<g>
	<path fill="#FFFFFF" d="M96,41.148c-4.207-2.26-10.415-4.182-17.951-5.593c4.338-6.336,7.371-12.088,8.737-16.652l-9.689-9.688
		c-4.563,1.364-10.314,4.398-16.649,8.735C59.035,10.404,57.113,4.192,54.852,0H41.148c-2.262,4.192-4.184,10.404-5.596,17.95
		c-6.335-4.338-12.086-7.371-16.649-8.735l-9.688,9.688c1.365,4.563,4.398,10.314,8.735,16.649C10.404,36.965,4.192,38.887,0,41.148
		v13.703c4.192,2.262,10.403,4.184,17.95,5.596c-4.338,6.335-7.37,12.086-8.735,16.649l9.688,9.689
		c4.563-1.366,10.314-4.399,16.649-8.736c1.412,7.546,3.334,13.758,5.596,17.95h13.703c2.262-4.193,4.184-10.405,5.596-17.953
		c6.328,4.331,12.076,7.362,16.649,8.739l9.689-9.689c-1.377-4.574-4.409-10.322-8.741-16.651
		c7.539-1.412,13.747-3.333,17.955-5.594V41.148z M48,66c-9.941,0-18-8.059-18-18s8.059-18,18-18s18,8.059,18,18S57.941,66,48,66z"
		/>
</g>
</svg>
