<?xml version="1.0" encoding="utf-8"?>
<!-- Generator: Adobe Illustrator 16.0.0, SVG Export Plug-In . SVG Version: 6.00 Build 0)  -->
<!DOCTYPE svg PUBLIC "-//W3C//DTD SVG 1.1//EN" "http://www.w3.org/Graphics/SVG/1.1/DTD/svg11.dtd">
<svg version="1.1" id="cog1" xmlns="http://www.w3.org/2000/svg" xmlns:xlink="http://www.w3.org/1999/xlink" x="0px" y="0px"
	 width="96px" height="96px" viewBox="0 0 96 96" enable-background="new 0 0 96 96" xml:space="preserve">
<path fill="#FFFFFF" d="M87.311,48c0-0.983-0.076-1.947-0.148-2.912c3.84-1.227,6.88-2.397,8.838-3.441l-0.704-3.963
	c-2.198-0.316-5.456-0.385-9.481-0.236c-0.535-1.89-1.203-3.719-2.006-5.48c3.178-2.452,5.628-4.58,7.105-6.225l-2.027-3.484
	c-2.176,0.449-5.263,1.491-8.998,2.998c-1.147-1.582-2.396-3.084-3.766-4.476c2.141-3.381,3.709-6.211,4.53-8.257l-3.106-2.586
	c-1.886,1.157-4.419,3.175-7.398,5.849c-1.615-1.095-3.333-2.041-5.108-2.891c0.848-3.912,1.347-7.108,1.413-9.313l-3.811-1.375
	c-1.377,1.731-3.066,4.499-4.952,8.036c-1.884-0.475-3.804-0.854-5.786-1.047C51.354,5.249,50.723,2.088,50.027,0h-4.055
	c-0.695,2.088-1.327,5.249-1.878,9.196c-1.981,0.194-3.901,0.573-5.786,1.047c-1.885-3.537-3.574-6.305-4.951-8.036l-3.811,1.375
	c0.066,2.205,0.565,5.401,1.413,9.313c-1.775,0.85-3.493,1.796-5.108,2.891c-2.979-2.674-5.513-4.692-7.398-5.849l-3.106,2.586
	c0.821,2.045,2.39,4.875,4.529,8.257c-1.368,1.392-2.617,2.894-3.766,4.476c-3.734-1.507-6.821-2.549-8.998-2.998l-2.028,3.484
	c1.479,1.645,3.929,3.772,7.106,6.225c-0.803,1.762-1.471,3.591-2.006,5.48c-4.026-0.148-7.283-0.08-9.481,0.236L0,41.646
	c1.958,1.044,4.998,2.215,8.837,3.441C8.766,46.053,8.689,47.017,8.689,48c0,0.982,0.076,1.947,0.147,2.912
	C4.998,52.139,1.958,53.309,0,54.354l0.704,3.963c2.198,0.316,5.456,0.385,9.481,0.236c0.535,1.89,1.203,3.719,2.006,5.48
	c-3.178,2.452-5.628,4.58-7.106,6.225l2.028,3.484c2.176-0.448,5.263-1.49,8.998-2.998c1.148,1.582,2.397,3.085,3.766,4.477
	c-2.14,3.381-3.708,6.211-4.529,8.257l3.106,2.585c1.886-1.156,4.419-3.176,7.398-5.849c1.615,1.095,3.333,2.04,5.108,2.891
	c-0.849,3.911-1.347,7.108-1.413,9.312l3.811,1.376c1.377-1.731,3.066-4.499,4.951-8.037c1.885,0.475,3.805,0.854,5.786,1.049
	c0.551,3.946,1.183,7.107,1.878,9.195h4.055c0.695-2.088,1.327-5.249,1.877-9.195c1.982-0.194,3.902-0.574,5.786-1.049
	c1.885,3.538,3.575,6.306,4.952,8.037l3.811-1.376c-0.066-2.204-0.564-5.401-1.413-9.312c1.775-0.851,3.493-1.796,5.108-2.891
	c2.979,2.673,5.513,4.692,7.398,5.849l3.106-2.585c-0.821-2.046-2.39-4.876-4.529-8.257c1.368-1.392,2.617-2.895,3.765-4.477
	c3.735,1.508,6.822,2.55,8.998,2.998l2.027-3.484c-1.478-1.645-3.928-3.772-7.105-6.225c0.803-1.762,1.471-3.591,2.006-5.48
	c4.025,0.148,7.283,0.08,9.481-0.236L96,54.354c-1.958-1.045-4.998-2.215-8.838-3.441C87.234,49.947,87.311,48.982,87.311,48z
	 M48,81c-18.226,0-33-14.775-33-33c0-18.226,14.774-33,33-33c18.225,0,33,14.774,33,33C81,66.225,66.225,81,48,81z"/>
</svg>
