<?xml version="1.0" encoding="utf-8"?>
<!-- Generator: Adobe Illustrator 16.0.0, SVG Export Plug-In . SVG Version: 6.00 Build 0)  -->
<!DOCTYPE svg PUBLIC "-//W3C//DTD SVG 1.1//EN" "http://www.w3.org/Graphics/SVG/1.1/DTD/svg11.dtd">
<svg version="1.1" id="cog4" xmlns="http://www.w3.org/2000/svg" xmlns:xlink="http://www.w3.org/1999/xlink" x="0px" y="0px"
	 width="96px" height="96px" viewBox="0 0 96 96" enable-background="new 0 0 96 96" xml:space="preserve">
<path fill="#FFFFFF" d="M87.311,48c0-0.983-0.076-1.947-0.147-2.912c3.839-1.227,6.879-2.397,8.837-3.441l-0.704-3.963
	c-2.198-0.316-5.456-0.385-9.481-0.236c-0.535-1.89-1.203-3.719-2.007-5.48c3.179-2.452,5.629-4.58,7.106-6.225l-2.027-3.484
	c-2.176,0.449-5.263,1.491-8.997,2.998c-1.148-1.582-2.397-3.084-3.766-4.476c2.14-3.381,3.707-6.211,4.529-8.257l-3.106-2.586
	c-1.886,1.157-4.419,3.175-7.399,5.849c-1.614-1.095-3.332-2.041-5.107-2.891c0.848-3.912,1.346-7.108,1.413-9.313l-3.811-1.375
	c-1.377,1.731-3.066,4.499-4.952,8.036c-1.884-0.475-3.805-0.854-5.785-1.047C51.354,5.249,50.723,2.088,50.027,0h-4.055
	c-0.695,2.088-1.327,5.249-1.878,9.196c-1.98,0.194-3.902,0.573-5.785,1.047c-1.886-3.537-3.575-6.305-4.952-8.036l-3.811,1.375
	c0.066,2.205,0.565,5.401,1.413,9.313c-1.775,0.85-3.493,1.796-5.108,2.891c-2.979-2.674-5.513-4.692-7.398-5.849l-3.106,2.586
	c0.821,2.045,2.39,4.875,4.529,8.257c-1.368,1.392-2.617,2.894-3.766,4.476c-3.734-1.507-6.821-2.549-8.997-2.998l-2.028,3.484
	c1.479,1.645,3.928,3.772,7.106,6.225c-0.803,1.762-1.471,3.591-2.006,5.48c-4.026-0.148-7.283-0.08-9.481,0.236L0,41.646
	c1.958,1.044,4.998,2.215,8.837,3.441C8.765,46.053,8.688,47.017,8.688,48c0,0.982,0.076,1.947,0.148,2.912
	C4.998,52.139,1.958,53.309,0,54.354l0.704,3.963c2.198,0.316,5.455,0.385,9.481,0.236c0.535,1.89,1.203,3.719,2.006,5.48
	c-3.179,2.452-5.628,4.58-7.106,6.225l2.028,3.484c2.176-0.448,5.263-1.49,8.997-2.998c1.148,1.582,2.397,3.085,3.766,4.477
	c-2.141,3.381-3.708,6.211-4.529,8.257l3.106,2.585c1.886-1.156,4.419-3.176,7.398-5.849c1.615,1.095,3.333,2.04,5.108,2.891
	c-0.848,3.911-1.347,7.108-1.413,9.312l3.811,1.376c1.377-1.731,3.066-4.499,4.952-8.037c1.883,0.475,3.805,0.854,5.785,1.049
	c0.551,3.946,1.183,7.107,1.878,9.195h4.055c0.695-2.088,1.327-5.249,1.878-9.195c1.98-0.194,3.901-0.574,5.785-1.049
	c1.885,3.538,3.575,6.306,4.952,8.037l3.811-1.376c-0.067-2.204-0.565-5.401-1.413-9.312c1.775-0.851,3.493-1.796,5.108-2.891
	c2.979,2.673,5.513,4.692,7.398,5.849l3.106-2.585c-0.822-2.046-2.39-4.876-4.529-8.257c1.368-1.392,2.617-2.895,3.766-4.477
	c3.734,1.508,6.821,2.55,8.997,2.998l2.027-3.484c-1.478-1.645-3.928-3.772-7.106-6.225c0.804-1.762,1.472-3.591,2.007-5.48
	c4.025,0.148,7.283,0.08,9.481-0.236L96,54.354c-1.958-1.045-4.998-2.215-8.837-3.441C87.234,49.947,87.311,48.982,87.311,48z
	 M51,18.244c0-1.694,1.556-2.959,3.22-2.641c7.429,1.418,13.966,5.33,18.723,10.829c1.105,1.278,0.778,3.255-0.686,4.1l-0.65,0.375
	c-1.096,0.633-2.449,0.339-3.28-0.615c-3.85-4.417-9.098-7.577-15.06-8.763C51.973,21.27,51,20.203,51,18.882V18.244z
	 M23.057,26.432c4.758-5.5,11.295-9.41,18.724-10.829C43.443,15.285,45,16.55,45,18.244v0.639c0,1.321-0.973,2.388-2.268,2.646
	c-5.961,1.186-11.21,4.347-15.059,8.764c-0.831,0.954-2.185,1.247-3.28,0.614l-0.651-0.375
	C22.279,29.687,21.952,27.71,23.057,26.432z M21.203,60.008l-0.464,0.268c-1.46,0.842-3.331,0.146-3.89-1.444
	C15.66,55.439,15,51.799,15,48c0-3.8,0.66-7.438,1.85-10.831c0.559-1.591,2.43-2.287,3.89-1.444l0.464,0.268
	c1.122,0.648,1.701,2,1.276,3.225C21.525,41.972,21,44.924,21,48s0.525,6.028,1.479,8.783
	C22.904,58.008,22.325,59.359,21.203,60.008z M45,77.756c0,1.693-1.557,2.959-3.22,2.642c-7.429-1.419-13.966-5.33-18.724-10.829
	c-1.104-1.278-0.777-3.255,0.686-4.1l0.651-0.376c1.096-0.632,2.449-0.339,3.28,0.615c3.849,4.417,9.098,7.578,15.059,8.765
	C44.027,74.73,45,75.797,45,77.117V77.756z M48,65.094c-9.44,0-17.094-7.653-17.094-17.094S38.56,30.906,48,30.906
	S65.094,38.56,65.094,48S57.44,65.094,48,65.094z M72.942,69.568c-4.757,5.499-11.294,9.41-18.723,10.829
	C52.556,80.715,51,79.449,51,77.756v-0.639c0-1.32,0.973-2.387,2.267-2.645c5.962-1.187,11.21-4.348,15.06-8.765
	c0.831-0.954,2.185-1.247,3.28-0.614l0.651,0.375C73.721,66.313,74.048,68.29,72.942,69.568z M79.149,58.831
	c-0.558,1.591-2.429,2.286-3.889,1.444l-0.464-0.268c-1.122-0.648-1.701-2-1.277-3.225C74.475,54.028,75,51.076,75,48
	s-0.525-6.028-1.48-8.783c-0.424-1.225,0.155-2.576,1.277-3.225l0.464-0.268c1.46-0.843,3.331-0.146,3.889,1.444
	C80.34,40.562,81,44.2,81,48C81,51.799,80.34,55.439,79.149,58.831z"/>
</svg>
