<?xml version="1.0" encoding="utf-8"?>
<!-- Generator: Adobe Illustrator 16.0.0, SVG Export Plug-In . SVG Version: 6.00 Build 0)  -->
<!DOCTYPE svg PUBLIC "-//W3C//DTD SVG 1.1//EN" "http://www.w3.org/Graphics/SVG/1.1/DTD/svg11.dtd">
<svg version="1.1" id="cog16" xmlns="http://www.w3.org/2000/svg" xmlns:xlink="http://www.w3.org/1999/xlink" x="0px" y="0px"
	 width="96px" height="96px" viewBox="0 0 96 96" enable-background="new 0 0 96 96" xml:space="preserve">
<g>
	<g>
		<path fill-rule="evenodd" clip-rule="evenodd" fill="#FFFFFF" d="M96,52.354v-8.707c-3.062-1.414-10.129-2.592-19.051-3.41
			c-0.686-2.559-1.69-4.98-2.986-7.221c5.729-6.886,9.892-12.714,11.057-15.878l-6.157-6.157
			c-3.164,1.165-8.992,5.328-15.878,11.057c-2.24-1.296-4.662-2.301-7.222-2.986C54.945,10.128,53.768,3.062,52.354,0h-8.707
			c-1.414,3.062-2.592,10.128-3.41,19.051c-2.747,0.736-5.333,1.847-7.71,3.283c-4.618-3.54-9.449-6.998-15.389-11.354l-6.157,6.157
			c4.355,5.94,7.814,10.771,11.354,15.389c-1.533,2.536-2.696,5.312-3.426,8.267C13.141,41.557,7.279,42.526,0,43.646v8.707
			c7.279,1.12,13.141,2.09,18.908,2.854c0.729,2.954,1.894,5.73,3.426,8.267c-3.539,4.618-6.998,9.448-11.354,15.389l6.157,6.157
			c5.939-4.355,10.771-7.814,15.389-11.354c2.536,1.533,5.312,2.696,8.267,3.426c0.763,5.768,1.733,11.629,2.854,18.908h8.707
			c1.12-7.279,2.09-13.141,2.854-18.908c2.765-0.683,5.375-1.739,7.777-3.129c6.886,5.729,12.714,9.892,15.878,11.057l6.157-6.157
			c-1.165-3.163-5.327-8.992-11.057-15.878c1.296-2.24,2.301-4.662,2.986-7.221C85.871,54.945,92.938,53.768,96,52.354z M48,69
			c-11.598,0-21-9.402-21-21s9.402-21,21-21s21,9.402,21,21S59.598,69,48,69z M48,33c-8.284,0-15,6.716-15,15s6.716,15,15,15
			s15-6.716,15-15S56.284,33,48,33z"/>
	</g>
</g>
</svg>
