<?xml version="1.0" encoding="utf-8"?>
<!-- Generator: Adobe Illustrator 16.0.0, SVG Export Plug-In . SVG Version: 6.00 Build 0)  -->
<!DOCTYPE svg PUBLIC "-//W3C//DTD SVG 1.1//EN" "http://www.w3.org/Graphics/SVG/1.1/DTD/svg11.dtd">
<svg version="1.1" id="cog17" xmlns="http://www.w3.org/2000/svg" xmlns:xlink="http://www.w3.org/1999/xlink" x="0px" y="0px"
	 width="96px" height="96px" viewBox="0 0 96 96" enable-background="new 0 0 96 96" xml:space="preserve">
<path fill="#FFFFFF" d="M96,52.354v-8.707c-3.77-1.74-13.591-3.127-25.494-3.918c-0.225-0.61-0.47-1.21-0.741-1.796
	c7.856-8.976,13.82-16.9,15.255-20.795l-6.157-6.157c-3.895,1.435-11.819,7.398-20.795,15.255c-0.586-0.271-1.186-0.517-1.797-0.741
	C55.479,13.591,54.094,3.769,52.354,0h-8.707c-1.74,3.769-3.127,13.591-3.918,25.494c-0.711,0.262-1.405,0.555-2.083,0.88
	c-6.286-5.128-12.356-9.416-20.508-15.394l-6.157,6.157c5.978,8.151,10.265,14.222,15.394,20.508
	c-0.371,0.773-0.702,1.567-0.99,2.384C17.313,40.849,9.99,42.109,0,43.646v8.707c9.99,1.537,17.313,2.798,25.384,3.617
	c0.288,0.816,0.619,1.61,0.99,2.384c-5.129,6.286-9.416,12.356-15.394,20.508l6.157,6.157c8.151-5.979,14.222-10.266,20.508-15.394
	c0.773,0.371,1.567,0.702,2.384,0.99c0.819,8.07,2.08,15.394,3.617,25.384h8.707c1.537-9.99,2.798-17.313,3.616-25.384
	c0.716-0.253,1.415-0.535,2.098-0.853c8.976,7.857,16.9,13.821,20.795,15.256l6.157-6.157c-1.435-3.895-7.398-11.819-15.255-20.795
	c0.271-0.587,0.517-1.186,0.741-1.796C82.409,55.48,92.23,54.094,96,52.354z M48,60c-6.628,0-12-5.373-12-12c0-6.628,5.372-12,12-12
	s12,5.372,12,12C60,54.627,54.628,60,48,60z"/>
</svg>
