<?xml version="1.0" encoding="utf-8"?>
<!-- Generator: Adobe Illustrator 16.0.0, SVG Export Plug-In . SVG Version: 6.00 Build 0)  -->
<!DOCTYPE svg PUBLIC "-//W3C//DTD SVG 1.1//EN" "http://www.w3.org/Graphics/SVG/1.1/DTD/svg11.dtd">
<svg version="1.1" id="cog12" xmlns="http://www.w3.org/2000/svg" xmlns:xlink="http://www.w3.org/1999/xlink" x="0px" y="0px"
	 width="96px" height="96px" viewBox="0 0 96 96" enable-background="new 0 0 96 96" xml:space="preserve">
<path fill="#FFFFFF" d="M89.284,56.138c0,0-3.007-1.649-3.007-8.138c0-6.487,3.007-8.139,3.007-8.139
	c4.465-2.45,7.423-6.547,6.569-9.104c-0.852-2.556-8.015-7.62-12.906-6.195c0,0-3.293,0.96-7.882-3.627
	c-4.588-4.588-3.629-7.882-3.629-7.882c1.426-4.892,0.646-9.872-1.731-11.067C67.328,0.792,58.59,2.25,56.138,6.717
	c0,0-1.649,3.008-8.138,3.008c-6.487,0-8.139-3.008-8.139-3.008c-2.45-4.467-6.547-7.423-9.104-6.571
	C28.202,1,23.138,8.162,24.563,13.054c0,0,0.96,3.294-3.628,7.882s-7.882,3.627-7.882,3.627c-4.892-1.425-9.872-0.646-11.067,1.732
	c-1.195,2.378,0.264,11.116,4.73,13.566c0,0,3.008,1.651,3.008,8.139c0,6.488-3.008,8.138-3.008,8.138
	c-4.466,2.452-7.423,6.549-6.57,9.105c0.853,2.556,8.016,7.619,12.907,6.193c0,0,3.294-0.959,7.882,3.629
	c4.588,4.589,3.628,7.882,3.628,7.882c-1.426,4.892-0.647,9.871,1.731,11.066c2.378,1.195,11.116-0.265,13.566-4.729
	c0,0,1.651-3.007,8.139-3.007c6.488,0,8.138,3.007,8.138,3.007c2.452,4.465,6.549,7.423,9.105,6.57
	c2.556-0.853,7.619-8.016,6.193-12.907c0,0-0.959-3.293,3.629-7.882c4.589-4.588,7.882-3.629,7.882-3.629
	c4.892,1.426,9.871,0.646,11.066-1.729C95.209,67.327,93.749,58.59,89.284,56.138z M48,66.527c-10.231,0-18.526-8.296-18.526-18.527
	c0-10.232,8.295-18.526,18.526-18.526S66.527,37.768,66.527,48C66.527,58.231,58.231,66.527,48,66.527z"/>
</svg>
