<?xml version="1.0" encoding="utf-8"?>
<!-- Generator: Adobe Illustrator 16.0.0, SVG Export Plug-In . SVG Version: 6.00 Build 0)  -->
<!DOCTYPE svg PUBLIC "-//W3C//DTD SVG 1.1//EN" "http://www.w3.org/Graphics/SVG/1.1/DTD/svg11.dtd">
<svg version="1.1" id="cog14" xmlns="http://www.w3.org/2000/svg" xmlns:xlink="http://www.w3.org/1999/xlink" x="0px" y="0px"
	 width="96px" height="96px" viewBox="0 0 96 96" enable-background="new 0 0 96 96" xml:space="preserve">
<g>
	<g>
		<path fill="#FFFFFF" d="M48,30c-9.941,0-18,8.059-18,18s8.059,18,18,18s18-8.059,18-18S57.941,30,48,30z M48,54
			c-3.314,0-6-2.686-6-6c0-3.313,2.686-6,6-6s6,2.687,6,6C54,51.314,51.314,54,48,54z M96,52.354v-8.707
			c-2.688-1.241-8.469-2.301-15.876-3.095c-0.83-3.595-2.249-6.955-4.147-9.994c4.679-5.801,8.02-10.641,9.043-13.42l-6.157-6.157
			c-2.779,1.024-7.618,4.364-13.42,9.043c-3.039-1.898-6.399-3.317-9.994-4.147C54.654,8.469,53.595,2.688,52.354,0h-8.707
			c-1.241,2.688-2.301,8.469-3.095,15.876c-3.829,0.884-7.403,2.422-10.594,4.512c-3.86-2.893-7.97-5.85-12.821-9.407l-6.156,6.157
			c3.557,4.851,6.514,8.96,9.406,12.82c-2.213,3.382-3.834,7.186-4.688,11.276C10.93,41.919,5.938,42.732,0,43.646v8.707
			c5.938,0.914,10.93,1.728,15.699,2.412c0.854,4.09,2.474,7.895,4.688,11.276c-2.893,3.86-5.85,7.97-9.406,12.821l6.156,6.156
			c4.852-3.558,8.961-6.514,12.821-9.406c3.382,2.213,7.186,3.834,11.276,4.688c0.685,4.77,1.498,9.761,2.412,15.699h8.707
			c0.914-5.938,1.728-10.93,2.412-15.699c3.854-0.805,7.443-2.305,10.677-4.324c5.802,4.679,10.641,8.02,13.42,9.043l6.157-6.156
			c-1.023-2.78-4.364-7.619-9.043-13.421c1.898-3.039,3.317-6.399,4.147-9.994C87.531,54.654,93.312,53.595,96,52.354z M48,72
			c-13.255,0-24-10.745-24-24s10.745-24,24-24s24,10.745,24,24S61.255,72,48,72z"/>
	</g>
</g>
</svg>
