<?xml version="1.0" encoding="utf-8"?>
<!-- Generator: Adobe Illustrator 16.0.0, SVG Export Plug-In . SVG Version: 6.00 Build 0)  -->
<!DOCTYPE svg PUBLIC "-//W3C//DTD SVG 1.1//EN" "http://www.w3.org/Graphics/SVG/1.1/DTD/svg11.dtd">
<svg version="1.1" id="cog21" xmlns="http://www.w3.org/2000/svg" xmlns:xlink="http://www.w3.org/1999/xlink" x="0px" y="0px"
	 width="96px" height="96px" viewBox="0 0 96 96" enable-background="new 0 0 96 96" xml:space="preserve">
<g>
	<g>
		<path fill-rule="evenodd" clip-rule="evenodd" fill="#FFFFFF" d="M48,30c-9.941,0-18,8.059-18,18s8.059,18,18,18s18-8.059,18-18
			S57.941,30,48,30z M48,60c-6.627,0-12-5.373-12-12s5.373-12,12-12s12,5.373,12,12S54.627,60,48,60z M91.223,35.197
			c-1.74-0.363-3.611-0.706-5.59-1.025c-0.372-1.015-0.785-2.013-1.238-2.992c1.191-1.653,2.275-3.23,3.236-4.713
			c1.542-2.375,1.212-5.506-0.79-7.508l-9.8-9.8C75.883,8,74.346,7.402,72.797,7.402c-1.128-0.001-2.263,0.316-3.264,0.967
			c-1.482,0.962-3.06,2.044-4.713,3.236c-0.975-0.451-1.969-0.862-2.979-1.233c-0.327-2.012-0.676-3.893-1.044-5.621
			C60.208,1.98,57.762,0,54.929,0H41.07c-2.832,0-5.278,1.98-5.868,4.751c-0.368,1.729-0.717,3.609-1.044,5.621
			c-1.01,0.371-2.004,0.782-2.979,1.233c-1.654-1.192-3.23-2.274-4.713-3.236c-1.001-0.65-2.136-0.967-3.264-0.967
			C21.654,7.401,20.117,8,18.959,9.159l-9.8,9.8c-2.002,2.002-2.332,5.133-0.791,7.508c0.961,1.482,2.045,3.06,3.237,4.713
			c-0.451,0.975-0.863,1.969-1.234,2.979c-2.011,0.327-3.892,0.676-5.62,1.044C1.98,35.792,0,38.238,0,41.071v13.857
			c0,2.833,1.98,5.279,4.751,5.869c1.729,0.367,3.609,0.717,5.62,1.044c0.371,1.01,0.783,2.003,1.234,2.979
			c-1.191,1.653-2.275,3.229-3.237,4.713c-1.542,2.375-1.212,5.506,0.791,7.508l9.8,9.8c1.158,1.159,2.695,1.758,4.244,1.758
			c1.128,0,2.263-0.317,3.264-0.968c1.482-0.961,3.059-2.044,4.713-3.235c0.975,0.45,1.969,0.861,2.979,1.232
			c0.327,2.012,0.676,3.893,1.044,5.621C35.792,94.02,38.238,96,41.07,96h13.858c2.833,0,5.279-1.98,5.869-4.751
			c0.368-1.729,0.717-3.609,1.044-5.621c1.014-0.372,2.012-0.785,2.991-1.239c1.625,1.173,3.19,2.253,4.677,3.228
			c1.006,0.659,2.15,0.982,3.287,0.982c1.549,0,3.086-0.599,4.244-1.758l9.8-9.8c2.01-2.01,2.334-5.154,0.775-7.531
			c-0.976-1.487-2.055-3.053-3.227-4.677c0.454-0.983,0.869-1.986,1.243-3.005c1.979-0.32,3.85-0.663,5.59-1.025
			C94.005,60.225,96,57.771,96,54.929V41.071C96,38.229,94.005,35.775,91.223,35.197z M90,54.929
			c-2.716,0.565-5.728,1.074-8.973,1.522c-0.812,3.18-2.062,6.176-3.697,8.928c1.979,2.611,3.747,5.1,5.268,7.42l-9.799,9.799
			c-2.32-1.521-4.809-3.289-7.42-5.268c-2.748,1.632-5.739,2.882-8.914,3.693C56.013,84.299,55.5,87.318,54.929,90H41.07
			c-0.57-2.682-1.083-5.701-1.535-8.977c-3.17-0.811-6.158-2.058-8.902-3.687c-2.635,1.996-5.132,3.769-7.432,5.261l-9.799-9.799
			c1.492-2.3,3.265-4.797,5.26-7.432c-1.629-2.745-2.875-5.732-3.686-8.903C11.701,56.013,8.682,55.5,6,54.929V41.071
			c2.682-0.571,5.701-1.084,8.977-1.535c0.811-3.171,2.057-6.159,3.686-8.903c-1.995-2.635-3.768-5.132-5.26-7.432l9.799-9.799
			c2.3,1.492,4.797,3.265,7.432,5.26c2.744-1.628,5.732-2.875,8.902-3.686C39.987,11.702,40.5,8.682,41.07,6h13.858
			c0.571,2.682,1.084,5.702,1.536,8.977c3.17,0.811,6.157,2.058,8.902,3.686c2.635-1.995,5.132-3.768,7.432-5.26l9.799,9.799
			c-1.492,2.3-3.265,4.797-5.261,7.432c1.632,2.748,2.88,5.74,3.69,8.916c3.245,0.448,6.257,0.957,8.973,1.522V54.929z"/>
	</g>
</g>
</svg>
